<svg data-v-423bf9ae="" xmlns="http://www.w3.org/2000/svg" viewBox="0 0 48.259459459459464 60" class="icon"><!----><!----><!----><!----><g data-v-423bf9ae="" id="2c2daaf9-9979-40e7-9799-e122afb918b1" transform="matrix(0.12972972972972974,0,0,0.12972972972972974,-8.30270220782306,-2.4389226346402566)" stroke="none" fill="white"><path d="M250 243.8c62 0 112.5-50.5 112.5-112.5S312 18.8 250 18.8 137.5 69.3 137.5 131.3 188 243.8 250 243.8zm0-181.5c38 0 69 31 69 69s-31 69-69 69-69-31-69-69 31-69 69-69zM273.5 255.8h-47c-90 0-162.5 73-162.5 162.5v41.5c0 12 10 21.5 21.5 21.5s21.5-10 21.5-21.5v-41.5c0-65.5 53.5-119.5 119.5-119.5h47c65.5 0 119.5 53.5 119.5 119.5v41.5c0 12 10 21.5 21.5 21.5 12 0 21.5-10 21.5-21.5v-41.5c0-90-72.5-162.5-162.5-162.5z"></path></g><!----></svg>