<svg data-v-423bf9ae="" xmlns="http://www.w3.org/2000/svg" viewBox="0 0 50.28521176752904 60" class="icon"><!----><!----><!----><!----><g data-v-423bf9ae="" id="39b070c7-25f5-4182-a301-6c282fe0e610" transform="matrix(0.9374998882413044,0,0,0.9374998882413044,-21.732382312418338,-16.874876394882634)" stroke="none" fill="black"><g color="#000" font-weight="400" font-family="sans-serif" white-space="normal" stroke-linecap="round" stroke-linejoin="round"><path style="line-height:normal;text-indent:0;text-align:start;text-decoration-line:none;text-decoration-style:solid;text-decoration-color:#000;text-transform:none;block-progression:tb;isolation:auto;mix-blend-mode:normal" d="M50.196 18.013a1.504 1.494 0 0 0-1.234.671c-2.738 3.972-11.417 7.348-21.347 7.406a1.504 1.494 0 0 0-.058 0 1.504 1.494 0 0 0-.196-.02 1.504 1.494 0 0 0-1.48 1.19s-1.5 6.75-2.252 14.913c-.752 8.164-.907 17.724 2.393 23.897 2.472 4.624 8.321 8.34 13.543 11.17 4.83 2.616 8.813 4.2 9.44 4.446a1.504 1.494 0 0 0 .995.312 1.504 1.494 0 0 0 1.008-.32 1.504 1.494 0 0 0 .007 0c.652-.256 4.616-1.828 9.428-4.435 5.221-2.829 11.063-6.545 13.535-11.17 3.3-6.172 3.145-15.732 2.393-23.896-.752-8.163-2.253-14.913-2.253-14.913a1.504 1.494 0 0 0-1.518-1.19 1.504 1.494 0 0 0-.125 0c-9.541-.038-17.923-3.235-20.848-7.094a1.504 1.494 0 0 0-1.432-.98zm-.027 3.892c4.193 4.423 12.24 6.91 21.226 7.129.3 1.422 1.346 6.51 1.983 13.421.732 7.953.58 17.29-2.058 22.222-1.809 3.384-7.288 7.221-12.32 9.947-4.556 2.468-8.258 3.95-9 4.244-.74-.294-4.443-1.776-8.998-4.244-5.032-2.726-10.512-6.563-12.32-9.947-2.638-4.932-2.79-14.269-2.058-22.222.636-6.907 1.681-11.991 1.983-13.418 9.142-.217 17.312-2.703 21.562-7.132z" overflow="visible" stroke-width=".882"></path><path style="line-height:normal;text-indent:0;text-align:start;text-decoration-line:none;text-decoration-style:solid;text-decoration-color:#000;text-transform:none;block-progression:tb;isolation:auto;mix-blend-mode:normal" d="M40.228 43.683c-3.419 0-6.235 2.788-6.235 6.2 0 3.411 2.816 6.199 6.235 6.199 2.898 0 5.34-2.011 6.023-4.7h18.234a1.5 1.5 0 1 0 0-3H46.251c-.682-2.688-3.125-4.699-6.023-4.699zm0 3c1.809 0 3.23 1.422 3.23 3.2 0 1.778-1.421 3.199-3.23 3.199-1.81 0-3.235-1.421-3.235-3.2 0-1.777 1.425-3.199 3.235-3.199zm17.543 6.633a1.5 1.5 0 1 0 0 3h6.714a1.5 1.5 0 1 0 0-3h-6.714z" overflow="visible" stroke-width="1.5"></path></g></g><!----></svg>