<svg data-v-423bf9ae="" xmlns="http://www.w3.org/2000/svg" viewBox="0 0 741 182" class="iconLeft"><!----><!----><!----><g data-v-423bf9ae="" id="cefc977f-4cab-4352-bad6-ac192e714ebe" fill="white" transform="matrix(5.9055118997155125,0,0,5.9055118997155125,196.8509612421878,41.9233639115357)"><path d="M4.56 13.37C6.65 13.37 8.27 12.15 8.27 10.60C8.27 8.75 6.58 8.36 4.93 7.98C3.37 7.62 1.90 7.27 1.90 5.77C1.90 4.69 3.11 3.81 4.58 3.81C6.34 3.81 7.28 4.86 7.29 4.87C7.35 4.94 7.46 4.94 7.55 4.89C7.62 4.82 7.63 4.70 7.56 4.63C7.52 4.58 6.51 3.44 4.58 3.44C2.90 3.44 1.54 4.49 1.54 5.77C1.54 7.56 3.22 7.95 4.84 8.33C6.43 8.69 7.92 9.04 7.92 10.60C7.92 11.96 6.45 13.02 4.56 13.02C2.65 13.02 1.18 11.70 1.16 11.69C1.09 11.62 0.98 11.63 0.91 11.70C0.84 11.77 0.85 11.89 0.92 11.96C0.98 12.01 2.51 13.37 4.56 13.37ZM10.50 10.53L10.50 10.53C10.50 12.07 11.73 13.30 13.24 13.30L13.24 13.30C14.77 13.30 16.02 12.07 16.02 10.53L16.02 6.62L16.02 6.62C16.02 6.52 15.93 6.44 15.83 6.44L15.83 6.44C15.75 6.44 15.65 6.52 15.65 6.62L15.65 10.53L15.65 10.53C15.65 11.87 14.57 12.95 13.24 12.95L13.24 12.95C11.93 12.95 10.85 11.87 10.85 10.53L10.85 6.62L10.85 6.62C10.85 6.52 10.77 6.44 10.68 6.44L10.68 6.44C10.57 6.44 10.50 6.52 10.50 6.62L10.50 10.53ZM21.43 13.30C22.90 13.30 24.07 12.43 24.07 11.33C24.07 10.00 22.81 9.70 21.69 9.45C20.58 9.18 19.63 8.96 19.63 7.97C19.63 7.24 20.44 6.66 21.43 6.66C22.64 6.66 23.27 7.36 23.28 7.38C23.34 7.45 23.45 7.46 23.53 7.39C23.60 7.32 23.62 7.21 23.55 7.14C23.52 7.10 22.81 6.30 21.43 6.30C20.24 6.30 19.26 7.04 19.26 7.97C19.26 9.25 20.51 9.53 21.60 9.80C22.68 10.05 23.70 10.28 23.70 11.33C23.70 12.22 22.68 12.95 21.43 12.95C20.12 12.95 19.11 12.05 19.10 12.04C19.03 11.97 18.91 11.98 18.84 12.05C18.77 12.12 18.79 12.24 18.86 12.31C18.90 12.35 19.98 13.30 21.43 13.30ZM28.43 6.44L27.31 6.44L27.31 3.70C27.31 3.60 27.23 3.51 27.13 3.51C27.03 3.51 26.96 3.60 26.96 3.70L26.96 3.70L26.96 6.44L25.79 6.44C25.69 6.44 25.61 6.52 25.61 6.62C25.61 6.72 25.69 6.79 25.79 6.79L26.96 6.79L26.96 12.25C26.96 12.84 27.44 13.31 28.03 13.31C28.13 13.31 28.21 13.23 28.21 13.13C28.21 13.03 28.13 12.96 28.03 12.96C27.64 12.96 27.31 12.64 27.31 12.25L27.31 6.79L28.43 6.79C28.53 6.79 28.62 6.72 28.62 6.62C28.62 6.52 28.53 6.44 28.43 6.44ZM37.06 6.44C36.95 6.44 36.88 6.54 36.88 6.62L36.88 8.33C36.34 7.22 35.25 6.44 33.99 6.44C32.20 6.44 30.76 7.99 30.76 9.87C30.76 11.75 32.20 13.30 33.99 13.30C35.25 13.30 36.34 12.53 36.88 11.41L36.88 13.12C36.88 13.23 36.95 13.30 37.06 13.30C37.16 13.30 37.23 13.23 37.23 13.12L37.23 6.62C37.23 6.54 37.16 6.44 37.06 6.44ZM33.99 12.95C32.41 12.95 31.11 11.58 31.11 9.87C31.11 8.18 32.41 6.80 33.99 6.80C35.57 6.80 36.88 8.18 36.88 9.87C36.88 11.58 35.57 12.95 33.99 12.95ZM40.18 13.12C40.18 13.22 40.25 13.30 40.36 13.30C40.45 13.30 40.53 13.22 40.53 13.12L40.53 6.61C40.53 6.50 40.45 6.44 40.36 6.44C40.25 6.44 40.18 6.50 40.18 6.61ZM40.18 4.75C40.18 4.83 40.25 4.91 40.36 4.91C40.45 4.91 40.53 4.83 40.53 4.75L40.53 4.41C40.53 4.30 40.45 4.23 40.36 4.23C40.25 4.23 40.18 4.30 40.18 4.41ZM49.28 13.12C49.28 13.22 49.34 13.30 49.45 13.30C49.55 13.30 49.63 13.22 49.63 13.12L49.63 9.21C49.63 7.67 48.38 6.44 46.87 6.44C45.84 6.44 44.93 7.01 44.45 7.87L44.45 6.61C44.45 6.50 44.38 6.44 44.28 6.44C44.18 6.44 44.10 6.50 44.10 6.61L44.10 9.10L44.10 9.21L44.10 13.12L44.10 13.15C44.10 13.17 44.11 13.20 44.13 13.22C44.13 13.23 44.13 13.23 44.14 13.24C44.16 13.26 44.17 13.27 44.18 13.27C44.20 13.29 44.21 13.29 44.23 13.30L44.25 13.30L44.28 13.30C44.34 13.30 44.38 13.27 44.41 13.23C44.44 13.20 44.45 13.16 44.45 13.12L44.45 9.21C44.45 7.85 45.56 6.79 46.87 6.79C48.19 6.79 49.28 7.85 49.28 9.21L49.28 13.12ZM52.07 10.16C52.07 11.90 53.47 13.30 55.20 13.30C56.95 13.30 58.35 11.90 58.35 10.16C58.35 9.88 58.32 9.62 58.25 9.35C58.44 9.32 58.62 9.24 58.77 9.11C59.04 8.92 59.22 8.58 59.21 8.15C59.21 7.99 59.19 7.83 59.15 7.67C59.14 7.56 59.04 7.52 58.94 7.53C58.84 7.55 58.77 7.66 58.81 7.74C58.84 7.90 58.87 8.02 58.87 8.15C58.84 8.48 58.74 8.68 58.56 8.82C58.38 8.95 58.16 9.02 57.90 9.02L57.82 9.02C57.64 9.00 57.48 9.00 57.32 9.00C56.31 9.00 55.69 9.25 55.31 9.60C54.94 9.97 54.87 10.40 54.87 10.72C54.87 10.99 54.92 11.19 54.92 11.19C54.96 11.27 55.03 11.31 55.10 11.31L55.16 11.31C55.24 11.27 55.30 11.19 55.26 11.07C55.26 11.07 55.26 11.06 55.24 10.99C55.24 10.92 55.23 10.84 55.23 10.72C55.23 10.46 55.30 10.12 55.57 9.86C55.85 9.59 56.36 9.35 57.32 9.35C57.48 9.35 57.62 9.35 57.81 9.38L57.89 9.38C57.96 9.63 58.00 9.90 58.00 10.16C58.00 11.70 56.76 12.95 55.20 12.95C53.66 12.95 52.42 11.70 52.42 10.16C52.42 9.09 53.03 8.13 53.94 7.66C53.97 7.66 54.00 7.64 54.03 7.62C54.10 7.57 54.12 7.49 54.10 7.41C54.10 7.41 54.08 7.41 54.08 7.39C54.07 7.38 54.05 7.35 54.04 7.34C53.54 6.99 53.24 6.41 53.24 5.77C53.24 4.70 54.10 3.85 55.13 3.85C56.20 3.85 57.05 4.70 57.05 5.77C57.05 5.87 57.15 5.95 57.23 5.95C57.34 5.95 57.41 5.87 57.41 5.77C57.41 4.51 56.39 3.50 55.13 3.50C53.90 3.50 52.88 4.51 52.88 5.77C52.88 6.44 53.16 7.03 53.61 7.45C52.68 7.99 52.07 9.02 52.07 10.16ZM70.25 8.65L70.25 11.97C69.44 12.57 68.42 12.94 67.33 12.94C64.67 12.94 62.51 10.84 62.51 8.23C62.51 5.67 64.67 3.56 67.33 3.56C68.46 3.56 69.51 3.95 70.32 4.59C70.39 4.66 70.53 4.65 70.59 4.58C70.66 4.48 70.64 4.37 70.55 4.30C69.68 3.61 68.54 3.21 67.33 3.21C64.47 3.21 62.15 5.46 62.15 8.23C62.15 11.03 64.47 13.29 67.33 13.30C68.54 13.30 69.68 12.88 70.55 12.21C70.57 12.18 70.59 12.15 70.60 12.11L70.60 12.08C70.62 12.07 70.62 12.05 70.62 12.04L70.62 8.48C70.62 8.37 70.55 8.29 70.45 8.29L70.42 8.29L67.24 8.29C67.16 8.29 67.06 8.37 67.06 8.48C67.06 8.57 67.16 8.65 67.24 8.65ZM79.52 6.44C79.41 6.44 79.34 6.54 79.34 6.62L79.34 8.33C78.81 7.22 77.71 6.44 76.45 6.44C74.66 6.44 73.22 7.99 73.22 9.87C73.22 11.75 74.66 13.30 76.45 13.30C77.71 13.30 78.81 12.53 79.34 11.41L79.34 13.12C79.34 13.23 79.41 13.30 79.52 13.30C79.62 13.30 79.69 13.23 79.69 13.12L79.69 6.62C79.69 6.54 79.62 6.44 79.52 6.44ZM76.45 12.95C74.87 12.95 73.57 11.58 73.57 9.87C73.57 8.18 74.87 6.80 76.45 6.80C78.04 6.80 79.34 8.18 79.34 9.87C79.34 11.58 78.04 12.95 76.45 12.95ZM82.64 13.12C82.64 13.22 82.71 13.30 82.82 13.30C82.91 13.30 82.99 13.22 82.99 13.12L82.99 6.61C82.99 6.50 82.91 6.44 82.82 6.44C82.71 6.44 82.64 6.50 82.64 6.61ZM82.64 4.75C82.64 4.83 82.71 4.91 82.82 4.91C82.91 4.91 82.99 4.83 82.99 4.75L82.99 4.41C82.99 4.30 82.91 4.23 82.82 4.23C82.71 4.23 82.64 4.30 82.64 4.41ZM91.74 13.12C91.74 13.22 91.80 13.30 91.91 13.30C92.01 13.30 92.09 13.22 92.09 13.12L92.09 9.21C92.09 7.67 90.85 6.44 89.33 6.44C88.30 6.44 87.39 7.01 86.91 7.87L86.91 6.61C86.91 6.50 86.84 6.44 86.74 6.44C86.65 6.44 86.56 6.50 86.56 6.61L86.56 9.10L86.56 9.21L86.56 13.12L86.56 13.15C86.56 13.17 86.58 13.20 86.59 13.22C86.59 13.23 86.59 13.23 86.60 13.24C86.62 13.26 86.63 13.27 86.65 13.27C86.66 13.29 86.67 13.29 86.69 13.30L86.72 13.30L86.74 13.30C86.80 13.30 86.84 13.27 86.87 13.23C86.90 13.20 86.91 13.16 86.91 13.12L86.91 9.21C86.91 7.85 88.02 6.79 89.33 6.79C90.65 6.79 91.74 7.85 91.74 9.21L91.74 13.12Z"></path></g><!----><g data-v-423bf9ae="" id="98657403-ce1d-43a2-b0c6-e0a0afb83dfd" transform="matrix(1.4211111280653212,0,0,1.4211111280653212,0.02855864606551961,0.11994227600095542)" stroke="none" fill="white"><path d="M59.4 33.9h.3s2.1-9.8 9-9.8h.4s4.9 3.8 11.2 3.8c2.5 0 5.3-.6 8-2.3 3.1-2 7.5-8.1 10.4-10.4h.1c5.4 3.9 10.1 8.6 14 14 .4-.1.8-.1 1.2-.1 1.8 0 3.5.7 4.9 2.1C107.7 12.5 87.3 0 64 0 28.7 0 0 28.7 0 64c0 26.1 15.6 48.5 38 58.5v-5.4c-.3-.1-.6-.3-.9-.4-.1-1.6 0-2.9.3-4-1.5-.3-2.7-1-3.6-2-.4 1.3-.6 2.8-.7 4.6-1.1-.7-2.3-1.4-3.4-2.2-2.3-3.1-5.3-7.5-7.6-12.3-1.3-2.8-7-6.4-8.3-9.2-.8-1.7 1.5-6.8-.2-7.3-.2-.1-.4-.1-.5-.1-.8 0-1.2.5-1.9.5-.8 0-2.1-.7-4.7-3.6C4.9 75.8 4 70 4 64c0-14.8 5.4-28.4 14.4-38.9.4.1.7.3.9.6 2.3 2.2-.6 9.5-.2 12.6.3 2.9 4.1 8.7 2.9 11.4-2 4.6-5.6 2.9-10.7 16.3-.3.8-1.2 1.5-1.9 2-.8.6-1.7 1.2-2.6 1.8-.5.3-1.2.8-1.4 1.4-.3 1-.2 2.4.1 3.4.3 1.1.9 2.1 1.5 3.1.9 1.4 2.2 2.7 3.5 3.8.7.7 1.4 1.1 2.4 1.1 1.1 0 2.2-.5 3.3-.5 3.8 0 9.4 4.1 12.3 7.9 1.4 1.8 6.2 2.1 9 3.3l2.7-5.4c-3-4.2-3.6-12.3 3.8-19.3 0 0 9.7-4.1 13.8-4.1.8 0 1.3.1 1.6.5 1.1 1.5-.6 1.9-.3 2.5 1.1 1.8 3.2.2 7.7 3.3h.1c.3 0 .5-1.8.5-1.8s1.1-.7 1.6-.7c.2 0 .6.2.9.4l3.6-7.3c-.6-.7-1.1-1.8-1.3-3.3l-1.6 4s-3.5-7.8-8.4-8.2h-.7c-5.7 0-7.1 6.7-10.1 7.9-1.2.5-2.2.6-3 .6-3.8 0-4-4.2-2.4-6.1.9-1.1 4.9 0 5.5-1.3 1.5-2.9-2-4.6-2-4.6s8.8-6.2 12.4-6.2h.4l5.7-1.1s.7-5.6 3.1-5.6c0 0-6.6 0-2-6.2 0 0-.4-.2-1-.2-1.2 0-3 .8-2.5 6.2.1 1.4-1.2 5.7-2.3 5.7-.1 0-.3-.1-.4-.2-2-2.2-1.2-3.3-2.2-3.8h-.2c-.5 0-.8.8-1.6.8-.5 0-1-.3-1.8-1.1-1.2-1-1.6-4.8 2.3-4.8zm2 24h.3c1.5.1 3.9 3.2 5.1 5.8l.4.9c-.5.2-1.1.5-1.8.9l-1.8-.6c-.2-1.1-.8-2-1.1-2.3-.7-.9-2.1-2-4.6-2.1 1.5-1.7 2.3-2.6 3.5-2.6zM28.8 15.8h-.5c5.7-4.3 12.3-7.5 19.4-9.6 1.4.1 3 .8 4.3 2.6.4.5-5 3.2-4 8 0 0-.1 2.4-1.8 2.8 0 0-1.8.2-1.8.7 0 1.2 3.3 1.3 1 4.7-1.2 1.8-3.4 2.2-4.5 2.9-.6.3-1.3 1.4-1.8 1.8-1.9 1.5-6 2.8-6.1 7.3 0 0-.4 1.4-1.3 1.4-.4 0-.9-.2-1.5-.9 0 0-3.5-7.4 0-8.3h.1c.4 0 1.4-.7.5-8.5 0 0-.2-1.3-1.5-1.3-.5 0-1.1.2-1.9.7-1.3-.4-1.4-3.4 1.4-4.3zm24 18.1c-1.1 2.5-.6 5.6 1.1 7.5.2.2.6.6 1.1 1-3.2 1.6-13.5 8.8-13.5 8.8l2.9 1.3c-.6.3-1.1.7-1.6 1.3-1.9 2.4-2.3 6-1 8.7.4.8.9 1.5 1.6 2.1-1.2.5-2.4 1.6-3.3 2.5-1.4 1.3-2.5 2.8-3.4 4.5-1.4 2.7-2.4 5.6-2.5 8.7 0 1.6.2 3.4.6 5 .3 1.2.7 2.3 1.3 3.3l-1.2-.3c-1-.2-2.6-.6-3.2-.9-3.5-4.5-10-9.2-15.3-9.2-.6 0-1.1.1-1.6.2-.7.1-1.1.2-1.4.2-3-2.7-3.8-4.6-3.9-5.6 3.1-2 5.1-3.9 5.7-5.6 2.9-7.6 5.1-9.6 6.9-11.2 1.3-1.2 2.7-2.5 3.8-5 1.4-3.2-.2-6.9-1.5-10.2-.5-1.1-1.1-2.6-1.1-3.2-.1-.6.3-2.4.5-3.6.3-1.6.6-3.2.6-4.9.1-1.4 0-2.7-.5-4-.1-.2-1.7-3.2-2-2.9.4-.4.8-.8 1.3-1.2.5 1.1 1.2 2 2.2 2.6l1.7 1v1.7c-.8.6-1.4 1.3-1.9 2.3-.8 1.6-.8 3.4-.5 5.1.2 1.6.8 3 1.3 4.5.7 1.8 2.1 3.4 3.9 4 .5.2 1.1.3 1.7.3 2.8 0 4.6-2.2 5.2-4.4l.1-.4v-.5c0-1.2.6-1.7 2.7-3 1-.6 1.9-1.2 2.7-2.1.2-.2.5-.7.7-.8.1-.1.4-.2.5-.2 1.3-.6 3.5-1.5 5.1-3.8.9-1.3 1.8-3.3 1.4-5.5 0-.1.8-1 .9-1.2.5-.8.9-1.7 1-2.6.1-.9-.1-1.7 0-2.6.1-1.1 1.3-2.1 2.1-2.8 3.2-2.9 1.9-5.4 1.3-6.3-.2-.3-.4-.5-.6-.8 2.8-.5 5.9-.7 9-.7 11 0 21.6 3 30.7 8.6-1.1 1.1-2.2 2.3-3.3 3.6-1.7 1.9-3.8 4.2-5 5-1.8 1.2-3.8 1.7-5.9 1.7-4.8 0-8.7-2.9-8.8-3-.9-.7-1.7-.8-2.8-.8-6.6 0-10.4 5.6-12.1 10.3-1.7.6-3 1.9-3.7 3.5z"></path><path d="M126 124h-4V61h2.4c3.2 0 4.6-2.2 2.9-4.8L116.9 35c-.8-1.3-1.9-2-2.9-2s-2.1.7-2.9 2l-10.4 21.1c-1.6 2.7-.3 4.8 2.9 4.8h2.4v63H90V85h2.4c3.2 0 4.6-2.2 2.9-4.8L84.9 59c-.8-1.3-1.9-2-2.9-2s-2.1.7-2.9 2L68.7 80.2c-1.6 2.7-.3 4.8 2.9 4.8H74v39H58v-15h2.4c3.2 0 4.6-2.2 2.9-4.8L52.9 83c-.8-1.3-1.9-2-2.9-2s-2.1.7-2.9 2l-10.4 21.1c-1.6 2.7-.3 4.8 2.9 4.8H42v15H2c-1.1 0-2 .9-2 2s.9 2 2 2h124c1.1 0 2-.9 2-2s-.9-1.9-2-1.9zm-72 0h-8v-19h-5.3L50 86.1l9.3 18.9H54v19zm32 0h-8V81h-5.3L82 62.1 91.3 81H86v43zm32 0h-8V57h-5.3l9.3-18.9 9.3 18.9H118v67z"></path></g><!----></svg>